<?xml version="1.0" encoding="UTF-8" standalone="no"?>
<!-- Created with Inkscape (http://www.inkscape.org/) -->

<svg
   width="97.5mm"
   height="107.78276mm"
   viewBox="0 0 97.5 107.78276"
   version="1.1"
   id="svg1"
   xml:space="preserve"
   xmlns="http://www.w3.org/2000/svg"
   xmlns:svg="http://www.w3.org/2000/svg"><defs
     id="defs1" /><g
     id="layer1"
     transform="translate(-29.195034,-94.115901)"><path
       id="path2-0-8"
       transform="matrix(0.7644453,0,0,-0.7644453,44.170046,162.26782)"
       d="M 34.034035,86.43289 -9.441063,61.332531 a 20.296634,20.296634 59.999999 0 1 -10.148317,-17.5774 l -2e-6,-50.200719 a 20.296634,20.296634 120 0 1 10.1483167,-17.577401 l 43.4750963,-25.10036 a 20.296634,20.296634 180 0 1 20.296634,-1e-6 l 43.475098,25.100359 a 20.296633,20.296633 59.999999 0 1 10.148317,17.5774 V 43.755128 A 20.296635,20.296635 120 0 1 97.805763,61.332529 l -43.475094,25.10036 a 20.296633,20.296633 180 0 1 -20.296634,10e-7 z"
       style="fill:#105fb9;fill-opacity:1;stroke-width:0.264583" /><path
       id="path2-0-8-8"
       transform="matrix(0.66643949,0,0,-0.66643949,48.500176,160.43954)"
       d="M 34.034035,86.43289 -9.441063,61.332531 a 20.296634,20.296634 59.999999 0 1 -10.148317,-17.5774 l -2e-6,-50.200719 a 20.296634,20.296634 120 0 1 10.1483167,-17.577401 l 43.4750963,-25.10036 a 20.296634,20.296634 180 0 1 20.296634,-1e-6 l 43.475098,25.100359 a 20.296633,20.296633 59.999999 0 1 10.148317,17.5774 V 43.755128 A 20.296635,20.296635 120 0 1 97.805763,61.332529 l -43.475094,25.10036 a 20.296633,20.296633 180 0 1 -20.296634,10e-7 z"
       style="fill:#ffffff;fill-opacity:1;stroke-width:0.264583" /><path
       id="path2-0-8-8-7"
       style="fill:#105fb9;fill-opacity:1;stroke-width:0.264583"
       d="m 50.030352,70.073147 -9.699584,-86.02251 a 5.276289,5.276289 41.783355 0 0 -5.243064,-4.6851 h -2.503315 a 4.4109165,4.4109165 138.52092 0 0 -4.377645,3.870163 l -4.152822,33.619006 a 2.5198082,2.5198082 178.85055 0 1 -4.987198,0.100065 l -5.435739,-33.046723 a 5.7025023,5.7025023 40.021263 0 0 -5.688271,-4.776625 l -7.92925863,0.08535 c -7.63226947,0.08216 -8.53119317,-3.063739 -1.99603707,-7.007087 11.9759905,-7.226377 23.9438807,-14.364961 36.0166397,-21.333054 6.279827,-3.625684 14.01691,-3.625684 20.296737,0 l 43.475056,25.100252 c 4.775129,2.757028 8.159329,7.294362 9.504309,12.504323 0.67301,2.6069831 -1.54564,4.8326197 -4.24459,4.8326197 h -5.238252 a 6.5741317,6.5741317 138.99366 0 0 -6.510355,5.6606302 L 86.035626,36.613567 a 2.1782253,2.1782253 179.99958 0 1 -4.314184,3.1e-5 L 76.30379,-1.9928822 a 5.4507715,5.4507715 41.00592 0 0 -5.397881,-4.6932861 h -3.689945 a 4.6196008,4.6196008 137.82545 0 0 -4.597151,4.1647225 L 55.439387,70.036215 a 2.7196886,2.7196886 179.60881 0 1 -5.409035,0.03693 z"
       transform="matrix(0.58803485,0,0,-0.58803485,52.239106,159.17638)" /><circle
       style="fill:#105fb9;fill-opacity:1;stroke-width:0.0667607"
       id="path8"
       cx="44.839977"
       cy="130.34612"
       r="3.4241281" /><circle
       style="fill:#105fb9;fill-opacity:1;stroke-width:0.0667607"
       id="path8-4"
       cx="54.863232"
       cy="140.36937"
       r="3.4241281" /><circle
       style="fill:#105fb9;fill-opacity:1;stroke-width:0.0667607"
       id="path8-9"
       cx="44.839977"
       cy="140.36937"
       r="3.4241281" /><circle
       style="fill:#105fb9;fill-opacity:1;stroke-width:0.0667607"
       id="path8-6"
       cx="44.839977"
       cy="150.39262"
       r="3.4241281" /><circle
       style="fill:#105fb9;fill-opacity:1;stroke-width:0.0667607"
       id="path8-04"
       cx="54.863232"
       cy="150.39262"
       r="3.4241281" /><circle
       style="fill:#105fb9;fill-opacity:1;stroke-width:0.0667607"
       id="path8-0"
       cx="64.88649"
       cy="130.34612"
       r="3.4241281" /><circle
       style="fill:#105fb9;fill-opacity:1;stroke-width:0.0667607"
       id="path8-06"
       cx="54.863232"
       cy="130.34612"
       r="3.4241281" /><circle
       style="fill:#105fb9;fill-opacity:1;stroke-width:0.0667607"
       id="path8-00"
       cx="64.88649"
       cy="140.36937"
       r="3.4241281" /></g></svg>
